<svg width="252" height="448" viewBox="0 0 252 448" fill="none" xmlns="http://www.w3.org/2000/svg">
<path fill-rule="evenodd" clip-rule="evenodd" d="M126 270C183.99 270 231 215.826 231 149C231 82.9433 185.067 29.2503 128 28.0218V3.33786e-06L252 1.09673e-05V448H127V420.092H201.833C206.252 420.092 209.833 416.51 209.833 412.092V336.657C209.833 332.239 206.252 328.657 201.833 328.657H51.1667C46.7484 328.657 43.1667 332.239 43.1667 336.657V412.092C43.1667 416.51 46.7484 420.092 51.1667 420.092H121V448H0V1.09673e-05L124 0V28.0218C66.9331 29.2503 21 82.9433 21 149C21 215.826 68.0101 270 126 270Z" fill="#0A0A0A" fill-opacity="0.6"/>
</svg>
